<mxfile host="app.diagrams.net" agent="Mozilla/5.0 (Windows NT 10.0; Win64; x64) AppleWebKit/537.36 (KHTML, like Gecko) Chrome/129.0.0.0 Safari/537.36" version="24.7.17">
  <diagram id="C5RBs43oDa-KdzZeNtuy" name="Page-1">
    <mxGraphModel dx="926" dy="467" grid="1" gridSize="10" guides="1" tooltips="1" connect="1" arrows="1" fold="1" page="1" pageScale="1" pageWidth="827" pageHeight="1169" math="0" shadow="0">
      <root>
        <mxCell id="WIyWlLk6GJQsqaUBKTNV-0" />
        <mxCell id="WIyWlLk6GJQsqaUBKTNV-1" parent="WIyWlLk6GJQsqaUBKTNV-0" />
        <mxCell id="gjM9OTv9I8srfG1ua2sc-0" value="Start" style="ellipse;whiteSpace=wrap;html=1;" parent="WIyWlLk6GJQsqaUBKTNV-1" vertex="1">
          <mxGeometry x="40" y="20" width="90" height="30" as="geometry" />
        </mxCell>
        <mxCell id="gjM9OTv9I8srfG1ua2sc-1" value="input click" style="shape=parallelogram;perimeter=parallelogramPerimeter;whiteSpace=wrap;html=1;fixedSize=1;" parent="WIyWlLk6GJQsqaUBKTNV-1" vertex="1">
          <mxGeometry x="35" y="130" width="100" height="30" as="geometry" />
        </mxCell>
        <mxCell id="gjM9OTv9I8srfG1ua2sc-2" value="click == &#39;play&#39;" style="rhombus;whiteSpace=wrap;html=1;" parent="WIyWlLk6GJQsqaUBKTNV-1" vertex="1">
          <mxGeometry x="20" y="180" width="130" height="60" as="geometry" />
        </mxCell>
        <mxCell id="gjM9OTv9I8srfG1ua2sc-4" value="input language" style="shape=parallelogram;perimeter=parallelogramPerimeter;whiteSpace=wrap;html=1;fixedSize=1;" parent="WIyWlLk6GJQsqaUBKTNV-1" vertex="1">
          <mxGeometry x="190" y="195" width="120" height="30" as="geometry" />
        </mxCell>
        <mxCell id="gjM9OTv9I8srfG1ua2sc-5" value="input name" style="shape=parallelogram;perimeter=parallelogramPerimeter;whiteSpace=wrap;html=1;fixedSize=1;" parent="WIyWlLk6GJQsqaUBKTNV-1" vertex="1">
          <mxGeometry x="25" y="270" width="120" height="30" as="geometry" />
        </mxCell>
        <mxCell id="gjM9OTv9I8srfG1ua2sc-7" value="i = 1" style="rounded=0;whiteSpace=wrap;html=1;" parent="WIyWlLk6GJQsqaUBKTNV-1" vertex="1">
          <mxGeometry x="45" y="380" width="80" height="30" as="geometry" />
        </mxCell>
        <mxCell id="gjM9OTv9I8srfG1ua2sc-8" value="i &amp;lt;= 3" style="rhombus;whiteSpace=wrap;html=1;" parent="WIyWlLk6GJQsqaUBKTNV-1" vertex="1">
          <mxGeometry x="50" y="460" width="70" height="60" as="geometry" />
        </mxCell>
        <mxCell id="gjM9OTv9I8srfG1ua2sc-9" value="play video[i]" style="rounded=0;whiteSpace=wrap;html=1;" parent="WIyWlLk6GJQsqaUBKTNV-1" vertex="1">
          <mxGeometry x="170" y="470" width="120" height="35" as="geometry" />
        </mxCell>
        <mxCell id="gjM9OTv9I8srfG1ua2sc-10" value="i++" style="rounded=0;whiteSpace=wrap;html=1;" parent="WIyWlLk6GJQsqaUBKTNV-1" vertex="1">
          <mxGeometry x="170" y="420" width="120" height="30" as="geometry" />
        </mxCell>
        <mxCell id="rWsC0_CIM5RJbznl44IM-0" value="show DashboardPage" style="rounded=0;whiteSpace=wrap;html=1;" vertex="1" parent="WIyWlLk6GJQsqaUBKTNV-1">
          <mxGeometry x="20" y="80" width="130" height="25" as="geometry" />
        </mxCell>
        <mxCell id="rWsC0_CIM5RJbznl44IM-1" value="show ScrollingVideoPage" style="rounded=0;whiteSpace=wrap;html=1;" vertex="1" parent="WIyWlLk6GJQsqaUBKTNV-1">
          <mxGeometry x="15" y="330" width="140" height="25" as="geometry" />
        </mxCell>
        <mxCell id="rWsC0_CIM5RJbznl44IM-3" value="" style="endArrow=classic;html=1;rounded=0;exitX=0.5;exitY=1;exitDx=0;exitDy=0;entryX=0.5;entryY=0;entryDx=0;entryDy=0;" edge="1" parent="WIyWlLk6GJQsqaUBKTNV-1" source="gjM9OTv9I8srfG1ua2sc-0" target="rWsC0_CIM5RJbznl44IM-0">
          <mxGeometry width="50" height="50" relative="1" as="geometry">
            <mxPoint x="130" y="100" as="sourcePoint" />
            <mxPoint x="180" y="50" as="targetPoint" />
          </mxGeometry>
        </mxCell>
        <mxCell id="rWsC0_CIM5RJbznl44IM-7" value="" style="endArrow=classic;html=1;rounded=0;" edge="1" parent="WIyWlLk6GJQsqaUBKTNV-1">
          <mxGeometry width="50" height="50" relative="1" as="geometry">
            <mxPoint x="85" y="160" as="sourcePoint" />
            <mxPoint x="85" y="180" as="targetPoint" />
          </mxGeometry>
        </mxCell>
        <mxCell id="rWsC0_CIM5RJbznl44IM-9" value="" style="endArrow=classic;html=1;rounded=0;entryX=0.5;entryY=0;entryDx=0;entryDy=0;" edge="1" parent="WIyWlLk6GJQsqaUBKTNV-1" target="gjM9OTv9I8srfG1ua2sc-1">
          <mxGeometry width="50" height="50" relative="1" as="geometry">
            <mxPoint x="84.76" y="105" as="sourcePoint" />
            <mxPoint x="84.76" y="125" as="targetPoint" />
          </mxGeometry>
        </mxCell>
        <mxCell id="rWsC0_CIM5RJbznl44IM-10" value="" style="endArrow=classic;html=1;rounded=0;exitX=1;exitY=0.5;exitDx=0;exitDy=0;" edge="1" parent="WIyWlLk6GJQsqaUBKTNV-1" source="gjM9OTv9I8srfG1ua2sc-2" target="gjM9OTv9I8srfG1ua2sc-4">
          <mxGeometry width="50" height="50" relative="1" as="geometry">
            <mxPoint x="130" y="250" as="sourcePoint" />
            <mxPoint x="180" y="200" as="targetPoint" />
          </mxGeometry>
        </mxCell>
        <mxCell id="rWsC0_CIM5RJbznl44IM-11" value="no" style="edgeLabel;html=1;align=center;verticalAlign=middle;resizable=0;points=[];" vertex="1" connectable="0" parent="rWsC0_CIM5RJbznl44IM-10">
          <mxGeometry x="0.0028" y="3" relative="1" as="geometry">
            <mxPoint as="offset" />
          </mxGeometry>
        </mxCell>
        <mxCell id="rWsC0_CIM5RJbznl44IM-12" value="" style="endArrow=classic;html=1;rounded=0;exitX=0.5;exitY=1;exitDx=0;exitDy=0;entryX=0.5;entryY=0;entryDx=0;entryDy=0;" edge="1" parent="WIyWlLk6GJQsqaUBKTNV-1" source="gjM9OTv9I8srfG1ua2sc-2" target="gjM9OTv9I8srfG1ua2sc-5">
          <mxGeometry width="50" height="50" relative="1" as="geometry">
            <mxPoint x="130" y="250" as="sourcePoint" />
            <mxPoint x="180" y="200" as="targetPoint" />
          </mxGeometry>
        </mxCell>
        <mxCell id="rWsC0_CIM5RJbznl44IM-13" value="yes" style="edgeLabel;html=1;align=center;verticalAlign=middle;resizable=0;points=[];" vertex="1" connectable="0" parent="rWsC0_CIM5RJbznl44IM-12">
          <mxGeometry x="-0.2046" relative="1" as="geometry">
            <mxPoint as="offset" />
          </mxGeometry>
        </mxCell>
        <mxCell id="rWsC0_CIM5RJbznl44IM-14" value="" style="endArrow=classic;html=1;rounded=0;exitX=0.472;exitY=1.053;exitDx=0;exitDy=0;exitPerimeter=0;entryX=0.476;entryY=-0.112;entryDx=0;entryDy=0;entryPerimeter=0;" edge="1" parent="WIyWlLk6GJQsqaUBKTNV-1" source="gjM9OTv9I8srfG1ua2sc-5" target="rWsC0_CIM5RJbznl44IM-1">
          <mxGeometry width="50" height="50" relative="1" as="geometry">
            <mxPoint x="100" y="350" as="sourcePoint" />
            <mxPoint x="150" y="300" as="targetPoint" />
          </mxGeometry>
        </mxCell>
        <mxCell id="rWsC0_CIM5RJbznl44IM-15" value="" style="endArrow=classic;html=1;rounded=0;exitX=0.46;exitY=1.043;exitDx=0;exitDy=0;exitPerimeter=0;" edge="1" parent="WIyWlLk6GJQsqaUBKTNV-1" source="rWsC0_CIM5RJbznl44IM-1">
          <mxGeometry width="50" height="50" relative="1" as="geometry">
            <mxPoint x="90" y="470" as="sourcePoint" />
            <mxPoint x="80" y="380" as="targetPoint" />
          </mxGeometry>
        </mxCell>
        <mxCell id="rWsC0_CIM5RJbznl44IM-16" value="" style="endArrow=classic;html=1;rounded=0;exitX=0.5;exitY=1;exitDx=0;exitDy=0;entryX=0.5;entryY=0;entryDx=0;entryDy=0;" edge="1" parent="WIyWlLk6GJQsqaUBKTNV-1" source="gjM9OTv9I8srfG1ua2sc-7" target="gjM9OTv9I8srfG1ua2sc-8">
          <mxGeometry width="50" height="50" relative="1" as="geometry">
            <mxPoint x="150" y="460" as="sourcePoint" />
            <mxPoint x="200" y="410" as="targetPoint" />
          </mxGeometry>
        </mxCell>
        <mxCell id="rWsC0_CIM5RJbznl44IM-17" value="" style="endArrow=classic;html=1;rounded=0;exitX=1;exitY=0.5;exitDx=0;exitDy=0;entryX=0.014;entryY=0.584;entryDx=0;entryDy=0;entryPerimeter=0;" edge="1" parent="WIyWlLk6GJQsqaUBKTNV-1" source="gjM9OTv9I8srfG1ua2sc-8" target="gjM9OTv9I8srfG1ua2sc-9">
          <mxGeometry width="50" height="50" relative="1" as="geometry">
            <mxPoint x="150" y="460" as="sourcePoint" />
            <mxPoint x="200" y="410" as="targetPoint" />
          </mxGeometry>
        </mxCell>
        <mxCell id="rWsC0_CIM5RJbznl44IM-18" value="true" style="edgeLabel;html=1;align=center;verticalAlign=middle;resizable=0;points=[];" vertex="1" connectable="0" parent="rWsC0_CIM5RJbznl44IM-17">
          <mxGeometry x="-0.3689" relative="1" as="geometry">
            <mxPoint as="offset" />
          </mxGeometry>
        </mxCell>
        <mxCell id="rWsC0_CIM5RJbznl44IM-19" value="" style="endArrow=classic;html=1;rounded=0;entryX=0.514;entryY=1.078;entryDx=0;entryDy=0;entryPerimeter=0;" edge="1" parent="WIyWlLk6GJQsqaUBKTNV-1" target="gjM9OTv9I8srfG1ua2sc-10">
          <mxGeometry width="50" height="50" relative="1" as="geometry">
            <mxPoint x="232" y="470" as="sourcePoint" />
            <mxPoint x="160" y="420" as="targetPoint" />
          </mxGeometry>
        </mxCell>
        <mxCell id="rWsC0_CIM5RJbznl44IM-20" value="" style="endArrow=classic;html=1;rounded=0;exitX=0;exitY=0.5;exitDx=0;exitDy=0;" edge="1" parent="WIyWlLk6GJQsqaUBKTNV-1" source="gjM9OTv9I8srfG1ua2sc-10">
          <mxGeometry width="50" height="50" relative="1" as="geometry">
            <mxPoint x="150" y="480" as="sourcePoint" />
            <mxPoint x="90" y="430" as="targetPoint" />
          </mxGeometry>
        </mxCell>
        <mxCell id="rWsC0_CIM5RJbznl44IM-22" value="show Game1Page" style="rounded=0;whiteSpace=wrap;html=1;" vertex="1" parent="WIyWlLk6GJQsqaUBKTNV-1">
          <mxGeometry x="20" y="540" width="140" height="25" as="geometry" />
        </mxCell>
        <mxCell id="rWsC0_CIM5RJbznl44IM-23" value="show TutorialGame1" style="rounded=0;whiteSpace=wrap;html=1;" vertex="1" parent="WIyWlLk6GJQsqaUBKTNV-1">
          <mxGeometry x="20" y="585" width="140" height="25" as="geometry" />
        </mxCell>
        <mxCell id="rWsC0_CIM5RJbznl44IM-24" value="" style="endArrow=classic;html=1;rounded=0;exitX=0.5;exitY=1;exitDx=0;exitDy=0;entryX=0.467;entryY=0.018;entryDx=0;entryDy=0;entryPerimeter=0;" edge="1" parent="WIyWlLk6GJQsqaUBKTNV-1" source="gjM9OTv9I8srfG1ua2sc-8" target="rWsC0_CIM5RJbznl44IM-22">
          <mxGeometry width="50" height="50" relative="1" as="geometry">
            <mxPoint x="30" y="620" as="sourcePoint" />
            <mxPoint x="80" y="570" as="targetPoint" />
          </mxGeometry>
        </mxCell>
        <mxCell id="rWsC0_CIM5RJbznl44IM-25" value="" style="endArrow=classic;html=1;rounded=0;entryX=0.462;entryY=0.019;entryDx=0;entryDy=0;entryPerimeter=0;exitX=0.463;exitY=1.017;exitDx=0;exitDy=0;exitPerimeter=0;" edge="1" parent="WIyWlLk6GJQsqaUBKTNV-1" source="rWsC0_CIM5RJbznl44IM-22" target="rWsC0_CIM5RJbznl44IM-23">
          <mxGeometry width="50" height="50" relative="1" as="geometry">
            <mxPoint x="90" y="570" as="sourcePoint" />
            <mxPoint x="95" y="550" as="targetPoint" />
          </mxGeometry>
        </mxCell>
        <mxCell id="rWsC0_CIM5RJbznl44IM-27" value="play Game1" style="rounded=0;whiteSpace=wrap;html=1;" vertex="1" parent="WIyWlLk6GJQsqaUBKTNV-1">
          <mxGeometry x="20" y="630" width="140" height="25" as="geometry" />
        </mxCell>
        <mxCell id="rWsC0_CIM5RJbznl44IM-28" value="" style="endArrow=classic;html=1;rounded=0;entryX=0.462;entryY=0.019;entryDx=0;entryDy=0;entryPerimeter=0;exitX=0.463;exitY=1.017;exitDx=0;exitDy=0;exitPerimeter=0;" edge="1" parent="WIyWlLk6GJQsqaUBKTNV-1">
          <mxGeometry width="50" height="50" relative="1" as="geometry">
            <mxPoint x="84.82" y="610" as="sourcePoint" />
            <mxPoint x="84.82" y="630" as="targetPoint" />
          </mxGeometry>
        </mxCell>
      </root>
    </mxGraphModel>
  </diagram>
</mxfile>
